# File produced by Open Asset Import Library (http://www.assimp.sf.net)
# (assimp v3.2.202087883)

mtllib model_normalized.mtl

# 70 vertex positions
v -0.231396 -0.051591 0.021484
v -0.231396 -0.067285 -0.029544
v -0.231396 -0.106133 -0.016823
v -0.231396 -0.003308 0.013263
v -0.231396 -0.036227 -0.337117
v 0.231396 -0.106133 -0.016823
v -0.231396 0.005373 0.056087
v 0.231396 -0.003308 0.013263
v -0.231396 -0.128128 -0.076700
v 0.231396 -0.036227 -0.337117
v 0.231396 -0.051591 0.021484
v -0.014462 -0.158012 -0.058661
v -0.231396 0.063493 0.051518
v 0.231396 -0.067285 -0.029544
v 0.231396 0.063493 0.051518
v -0.231396 -0.158012 -0.058661
v 0.231396 -0.128128 -0.076700
v 0.014462 -0.158012 -0.058661
v 0.231396 0.005373 0.056087
v -0.231396 0.064509 0.086829
v -0.231396 -0.185542 -0.127976
v -0.014462 -0.206999 -0.103853
v -0.014462 -0.334519 0.132666
v 0.231396 -0.158012 -0.058661
v -0.231396 0.132794 0.085032
v 0.231396 0.132794 0.085032
v 0.231396 0.064509 0.086829
v -0.231396 -0.206999 -0.103853
v 0.231396 -0.185542 -0.127976
v -0.014462 -0.334519 0.034373
v 0.014462 -0.334519 0.132666
v 0.231396 -0.206999 -0.103853
v -0.231396 0.125554 0.113579
v -0.231396 -0.239249 -0.183123
v 0.231396 -0.239249 -0.183123
v 0.014462 -0.206999 -0.103853
v 0.014462 -0.334519 0.034373
v -0.231396 0.188241 0.136215
v 0.231396 0.204259 0.113637
v 0.231396 0.125554 0.113579
v -0.231396 -0.252878 -0.152196
v -0.231396 0.204259 0.113637
v 0.231396 0.188241 0.136215
v -0.231396 -0.288989 -0.241877
v 0.231396 -0.288989 -0.241877
v 0.231396 -0.252878 -0.152196
v -0.231396 0.252289 0.154640
v 0.231396 0.277540 0.137206
v 0.231396 0.252289 0.154640
v -0.231396 -0.295448 -0.203484
v -0.231396 0.277540 0.137206
v -0.231396 -0.334519 -0.303944
v 0.231396 -0.334519 -0.303944
v 0.231396 -0.295448 -0.203484
v -0.231396 0.317426 0.168778
v -0.116155 0.317426 0.147029
v 0.231396 0.317426 0.168778
v -0.231396 -0.334519 -0.257479
v -0.231396 0.317426 0.147029
v 0.116155 0.317426 0.147029
v 0.231396 0.317426 0.147029
v 0.116155 0.317426 0.168778
v -0.116155 0.317426 0.168778
v 0.231396 -0.334519 -0.257479
v 0.116155 0.352288 0.155614
v -0.116155 0.352288 0.155614
v -0.116155 0.393418 0.168778
v 0.116155 0.393418 0.162752
v 0.116155 0.393418 0.168778
v -0.116155 0.393418 0.162752

# 0 UV coordinates

# 68 vertex normals
vn -0.0254 0 0
vn 0.0254 0 0
vn 0 -0.0152803 0.0202897
vn 0 -0.0138998 0.0212593
vn 0 0.0152803 -0.0202897
vn 0 0.0138998 -0.0212593
vn 0 0.0133818 -0.021589
vn 0 0.0141253 -0.0211101
vn 0 -0.0133818 0.021589
vn 0 -0.0141253 0.0211101
vn 0 0.0252715 0.00255186
vn -0 -0.0252715 -0.00255186
vn 0 -0.0159456 0.0197711
vn 0 0.0159456 -0.0197711
vn 0 -0.012458 0.022135
vn 0 0.012458 -0.022135
vn 0 0.0118471 -0.0224679
vn 0 -0.0118471 0.0224679
vn 0 -0.0239522 -0.00845276
vn 0 0.0239522 0.00845276
vn 0 0.0169193 -0.0189446
vn 0 0.0175686 -0.0183441
vn 0 -0.0169193 0.0189446
vn 0 -0.0175686 0.0183441
vn 0 -0.0172228 0.0186691
vn 0 0.0172228 -0.0186691
vn 0 0.0186691 0.0172228
vn -0 -0.0186691 -0.0172228
vn 0 -0.0109612 0.0229131
vn 0 0.0109612 -0.0229131
vn 0 0.010255 -0.0232378
vn 0 -0.010255 0.0232378
vn 0 0.0188025 -0.0170771
vn 0 -0.0188025 0.0170771
vn 0 -0.018424 0.0174847
vn 0 0.018424 -0.0174847
vn 0 -0.0254 0
vn 0 0.0254 0
vn 0 -0.00941608 0.0235902
vn 0 0.00941608 -0.0235902
vn 0 0.00861309 -0.0238951
vn 0 -0.00861309 0.0238951
vn 0 -0.00782945 0.0241632
vn 0 0.00782945 -0.0241632
vn 0 -0.0189945 0.0168632
vn 0 0.0189945 -0.0168632
vn 0 0.0199452 -0.0157273
vn 0 -0.0199452 0.0157273
vn 0 0.00692948 -0.0244365
vn 0 -0.00692948 0.0244365
vn 0 -0.00620827 0.0246296
vn 0 0.00620827 -0.0246296
vn 0 -0.020072 0.0155652
vn 0 0.020072 -0.0155652
vn 0 0.0204807 -0.0150234
vn 0 -0.0204807 0.0150234
vn 0 0.00607454 -0.0246629
vn 0 -0.00607454 0.0246629
vn 0 -0.00538696 0.0248222
vn 0 0.00538696 -0.0248222
vn 0 -0.0205778 0.0148901
vn 0 0.0205778 -0.0148901
vn 0 0.00521226 -0.0248595
vn 0 -0.00521226 0.0248595
vn 0 0 0.0254
vn -0 -0 -0.0254
vn 0 0.00434365 -0.0250258
vn 0 -0.00434365 0.0250258

# Mesh 'mesh1_mesh1-geometry' with 272 faces
g mesh1_mesh1-geometry
usemtl material_0_24
f  1//1 2//1 3//1
f  2//1 1//1 4//1
f  3//2 2//2 1//2
f  4//2 1//2 2//2
f  5//1 3//1 2//1
f  2//2 3//2 5//2
f  6//3 1//4 3//3
f  3//5 1//6 6//5
f  4//1 1//1 7//1
f  7//2 1//2 4//2
f  8//7 2//8 4//7
f  4//9 2//10 8//9
f  9//1 3//1 5//1
f  5//2 3//2 9//2
f  2//11 10//11 5//11
f  5//12 10//12 2//12
f  1//4 6//3 11//4
f  11//6 6//5 1//6
f  3//3 12//13 6//3
f  6//5 12//14 3//5
f  11//4 7//15 1//4
f  1//6 7//16 11//6
f  4//1 7//1 13//1
f  13//2 7//2 4//2
f  2//8 8//7 14//8
f  14//10 8//9 2//10
f  4//7 15//17 8//7
f  8//9 15//18 4//9
f  9//1 16//1 3//1
f  3//2 16//2 9//2
f  5//19 17//19 9//19
f  9//20 17//20 5//20
f  10//11 2//11 14//11
f  14//12 2//12 10//12
f  17//19 5//19 10//19
f  10//20 5//20 17//20
f  14//2 11//2 6//2
f  6//1 11//1 14//1
f  12//13 3//3 16//13
f  16//14 3//5 12//14
f  6//3 12//13 18//13
f  18//14 12//14 6//5
f  7//15 11//4 19//15
f  19//16 11//6 7//16
f  13//1 7//1 20//1
f  20//2 7//2 13//2
f  15//17 4//7 13//17
f  13//18 4//9 15//18
f  11//2 14//2 8//2
f  8//1 14//1 11//1
f  19//2 8//2 15//2
f  15//1 8//1 19//1
f  21//1 16//1 9//1
f  9//2 16//2 21//2
f  17//21 21//22 9//21
f  9//23 21//24 17//23
f  6//2 10//2 14//2
f  14//1 10//1 6//1
f  6//2 17//2 10//2
f  10//1 17//1 6//1
f  16//25 22//25 12//25
f  12//26 22//26 16//26
f  23//27 18//27 12//27
f  12//28 18//28 23//28
f  6//3 18//13 24//13
f  24//14 18//14 6//5
f  11//2 8//2 19//2
f  19//1 8//1 11//1
f  19//15 20//29 7//15
f  7//16 20//30 19//16
f  13//1 20//1 25//1
f  25//2 20//2 13//2
f  13//17 26//31 15//17
f  15//18 26//32 13//18
f  19//2 15//2 27//2
f  27//1 15//1 19//1
f  21//1 28//1 16//1
f  16//2 28//2 21//2
f  21//22 17//21 29//22
f  29//24 17//23 21//24
f  24//2 17//2 6//2
f  6//1 17//1 24//1
f  22//25 16//25 28//25
f  28//26 16//26 22//26
f  30//1 12//1 22//1
f  22//2 12//2 30//2
f  18//27 23//27 31//27
f  31//28 23//28 18//28
f  12//1 30//1 23//1
f  23//2 30//2 12//2
f  18//25 32//25 24//25
f  24//26 32//26 18//26
f  20//29 19//15 27//29
f  27//30 19//16 20//30
f  25//1 20//1 33//1
f  33//2 20//2 25//2
f  26//31 13//17 25//31
f  25//32 13//18 26//32
f  27//2 15//2 26//2
f  26//1 15//1 27//1
f  34//1 28//1 21//1
f  21//2 28//2 34//2
f  24//2 29//2 17//2
f  17//1 29//1 24//1
f  35//33 21//22 29//22
f  29//24 21//24 35//34
f  28//35 36//35 22//35
f  22//36 36//36 28//36
f  22//28 37//28 30//28
f  30//27 37//27 22//27
f  30//37 31//37 23//37
f  23//38 31//38 30//38
f  37//2 18//2 31//2
f  31//1 18//1 37//1
f  32//25 18//25 36//25
f  36//26 18//26 32//26
f  32//2 29//2 24//2
f  24//1 29//1 32//1
f  27//29 33//39 20//29
f  20//30 33//40 27//30
f  25//1 33//1 38//1
f  38//2 33//2 25//2
f  25//31 39//41 26//31
f  26//32 39//42 25//32
f  27//2 26//2 40//2
f  40//1 26//1 27//1
f  34//1 41//1 28//1
f  28//2 41//2 34//2
f  21//22 35//33 34//33
f  34//34 35//34 21//24
f  32//2 35//2 29//2
f  29//1 35//1 32//1
f  28//35 32//35 36//35
f  36//36 32//36 28//36
f  37//28 22//28 36//28
f  36//27 22//27 37//27
f  31//37 30//37 37//37
f  37//38 30//38 31//38
f  18//2 37//2 36//2
f  36//1 37//1 18//1
f  33//39 27//29 40//39
f  40//40 27//30 33//40
f  40//39 38//43 33//39
f  33//40 38//44 40//40
f  25//1 38//1 42//1
f  42//2 38//2 25//2
f  39//41 25//31 42//41
f  42//42 25//32 39//42
f  43//2 26//2 39//2
f  39//1 26//1 43//1
f  40//2 26//2 43//2
f  43//1 26//1 40//1
f  44//1 41//1 34//1
f  34//2 41//2 44//2
f  41//45 32//35 28//35
f  28//36 32//36 41//46
f  45//47 34//33 35//33
f  35//34 34//34 45//48
f  46//2 35//2 32//2
f  32//1 35//1 46//1
f  38//43 40//39 43//43
f  43//44 40//40 38//44
f  42//1 38//1 47//1
f  47//2 38//2 42//2
f  42//41 48//49 39//41
f  39//42 48//50 42//42
f  43//2 39//2 49//2
f  49//1 39//1 43//1
f  44//1 50//1 41//1
f  41//2 50//2 44//2
f  34//33 45//47 44//47
f  44//48 45//48 34//34
f  32//35 41//45 46//45
f  46//46 41//46 32//36
f  46//2 45//2 35//2
f  35//1 45//1 46//1
f  43//43 47//51 38//43
f  38//44 47//52 43//44
f  42//1 47//1 51//1
f  51//2 47//2 42//2
f  48//49 42//41 51//49
f  51//50 42//42 48//50
f  49//2 39//2 48//2
f  48//1 39//1 49//1
f  47//51 43//43 49//51
f  49//52 43//44 47//52
f  52//1 50//1 44//1
f  44//2 50//2 52//2
f  50//53 46//45 41//45
f  41//46 46//46 50//54
f  53//55 44//47 45//47
f  45//48 44//48 53//56
f  54//2 45//2 46//2
f  46//1 45//1 54//1
f  51//1 47//1 55//1
f  55//2 47//2 51//2
f  51//49 56//57 48//49
f  48//50 56//58 51//50
f  49//2 48//2 57//2
f  57//1 48//1 49//1
f  49//51 55//59 47//51
f  47//52 55//60 49//52
f  50//1 52//1 58//1
f  58//2 52//2 50//2
f  44//47 53//55 52//55
f  52//56 53//56 44//48
f  46//45 50//53 54//53
f  54//54 50//54 46//46
f  54//2 53//2 45//2
f  45//1 53//1 54//1
f  51//1 55//1 59//1
f  59//2 55//2 51//2
f  56//57 51//49 59//57
f  59//58 51//50 56//58
f  48//49 56//57 60//57
f  60//58 56//58 48//50
f  57//2 48//2 61//2
f  61//1 48//1 57//1
f  62//59 49//51 57//59
f  57//60 49//52 62//60
f  55//59 49//51 63//59
f  63//60 49//52 55//60
f  52//37 64//37 58//37
f  58//38 64//38 52//38
f  58//61 54//53 50//53
f  50//54 54//54 58//62
f  64//37 52//37 53//37
f  53//38 52//38 64//38
f  53//2 54//2 64//2
f  64//1 54//1 53//1
f  55//38 56//38 59//38
f  59//37 56//37 55//37
f  60//57 56//57 65//63
f  65//64 56//58 60//58
f  48//49 60//57 61//57
f  61//58 60//58 48//50
f  61//38 62//38 57//38
f  57//37 62//37 61//37
f  63//59 49//51 62//59
f  62//60 49//52 63//60
f  56//38 55//38 63//38
f  63//37 55//37 56//37
f  54//53 58//61 64//61
f  64//62 58//62 54//54
f  65//63 56//57 66//63
f  66//64 56//58 65//64
f  65//2 62//2 60//2
f  60//1 62//1 65//1
f  62//38 61//38 60//38
f  60//37 61//37 62//37
f  62//65 67//65 63//65
f  63//66 67//66 62//66
f  67//1 56//1 63//1
f  63//2 56//2 67//2
f  56//1 67//1 66//1
f  66//2 67//2 56//2
f  66//63 68//67 65//63
f  65//64 68//68 66//64
f  62//2 65//2 69//2
f  69//1 65//1 62//1
f  67//65 62//65 69//65
f  69//66 62//66 67//66
f  66//1 67//1 70//1
f  70//2 67//2 66//2
f  68//67 66//63 70//67
f  70//68 66//64 68//68
f  69//2 65//2 68//2
f  68//1 65//1 69//1
f  68//38 67//38 69//38
f  69//37 67//37 68//37
f  67//38 68//38 70//38
f  70//37 68//37 67//37

# Mesh 'mesh2_mesh2-geometry' with 90 faces
g mesh2_mesh2-geometry
usemtl material_0_0
l  51 42
l  59 51
l  42 25
l  55 59
l  59 56
l  25 13
l  55 47
l  55 63
l  66 56
l  63 56
l  13 4
l  47 38
l  63 67
l  63 62
l  70 66
l  4 2
l  38 33
l  67 70
l  67 69
l  62 69
l  62 60
l  57 62
l  70 68
l  2 5
l  2 14
l  33 20
l  69 68
l  65 60
l  61 60
l  57 49
l  57 61
l  68 65
l  5 9
l  5 10
l  8 14
l  14 10
l  20 7
l  61 48
l  49 43
l  9 21
l  9 17
l  10 17
l  15 8
l  7 1
l  48 39
l  43 40
l  21 34
l  17 29
l  26 15
l  1 3
l  39 26
l  40 27
l  34 44
l  29 35
l  3 16
l  27 19
l  44 52
l  35 45
l  16 28
l  16 12
l  19 11
l  52 58
l  52 53
l  45 53
l  28 41
l  28 22
l  12 18
l  12 22
l  12 23
l  11 6
l  50 58
l  58 64
l  53 64
l  41 50
l  22 36
l  22 30
l  18 36
l  18 24
l  18 31
l  31 23
l  23 30
l  6 24
l  54 64
l  36 32
l  36 37
l  30 37
l  24 32
l  31 37
l  46 54
l  32 46

